<svg width="34" height="34" viewBox="0 0 34 34" fill="none" xmlns="http://www.w3.org/2000/svg">
<path d="M29.7659 7.27139C29.5012 7.15278 29.2434 7.02277 28.9937 6.88182C28.2674 6.46567 27.6014 5.97531 27.0103 5.42131C25.5311 3.95443 24.9786 2.46629 24.7751 1.42439H24.7833C24.6133 0.559555 24.6836 0 24.6942 0H17.957V22.5791C17.957 22.8823 17.957 23.1819 17.9423 23.478C17.9423 23.5148 17.9382 23.5488 17.9358 23.5884C17.9358 23.6047 17.9358 23.6217 17.9317 23.6387C17.9317 23.643 17.9317 23.6472 17.9317 23.6515C17.8607 24.4616 17.561 25.2442 17.0591 25.9304C16.5572 26.6166 15.8685 27.1854 15.0534 27.5868C14.2039 28.0056 13.2432 28.2254 12.2659 28.2243C9.12688 28.2243 6.58285 26.0059 6.58285 23.2662C6.58285 20.5265 9.12688 18.3081 12.2659 18.3081C12.86 18.3076 13.4506 18.3886 14.0155 18.5482L14.0237 12.6027C12.3086 12.4107 10.5663 12.5289 8.90653 12.9497C7.24679 13.3705 5.70568 14.0849 4.38043 15.0478C3.2192 15.9223 2.24295 16.9656 1.49562 18.131C1.21122 18.556 0.138203 20.2637 0.00826369 23.0353C-0.073459 24.6084 0.471631 26.2382 0.731509 26.9118V26.9259C0.894955 27.3226 1.52831 28.6762 2.56046 29.8172C3.39276 30.7325 4.37609 31.5366 5.47878 32.2035V32.1893L5.49512 32.2035C8.75668 34.1244 12.3729 33.9983 12.3729 33.9983C12.9989 33.9763 15.0959 33.9983 17.4773 33.0201C20.1186 31.9357 21.6223 30.3201 21.6223 30.3201C22.5829 29.3548 23.3468 28.2546 23.8811 27.0669C24.4907 25.6779 24.6942 24.012 24.6942 23.3462V11.3675C24.776 11.41 25.8645 12.034 25.8645 12.034C25.8645 12.034 27.4328 12.9052 29.8795 13.4725C31.6349 13.8763 34 13.9613 34 13.9613V8.16455C33.1713 8.24246 31.4887 8.01581 29.7659 7.27139Z" fill="white"/>
</svg>
