<svg width="34" height="34" viewBox="0 0 34 34" fill="none" xmlns="http://www.w3.org/2000/svg">
<path d="M25.158 19.5366C25.0918 19.5048 22.6131 18.2842 22.1727 18.1257C21.9928 18.0611 21.8002 17.9981 21.5953 17.9981C21.2606 17.9981 20.9795 18.1649 20.7604 18.4925C20.5128 18.8605 19.7633 19.7367 19.5317 19.9984C19.5014 20.033 19.4602 20.0743 19.4354 20.0743C19.4132 20.0743 19.0296 19.9163 18.9135 19.8658C16.2545 18.7108 14.2363 15.9333 13.9595 15.4649C13.92 15.3976 13.9184 15.367 13.918 15.367C13.9278 15.3314 14.0172 15.2417 14.0633 15.1955C14.1983 15.0619 14.3446 14.8858 14.4861 14.7155C14.5531 14.6348 14.6202 14.554 14.6861 14.4778C14.8915 14.239 14.9829 14.0535 15.0888 13.8387L15.1444 13.7271C15.4031 13.213 15.1821 12.7792 15.1107 12.6391C15.0521 12.5218 14.0055 9.9959 13.8942 9.73053C13.6266 9.09015 13.273 8.79199 12.7817 8.79199C12.7361 8.79199 12.7817 8.79199 12.5905 8.80005C12.3577 8.80988 11.0899 8.97678 10.5293 9.33014C9.93485 9.70492 8.9292 10.8996 8.9292 13.0005C8.9292 14.8914 10.1291 16.6767 10.6443 17.3557C10.6571 17.3728 10.6806 17.4076 10.7148 17.4575C12.6877 20.3389 15.1473 22.4742 17.6407 23.4703C20.0411 24.4291 21.1778 24.54 21.824 24.54H21.8242C22.0957 24.54 22.3131 24.5187 22.5048 24.4998L22.6265 24.4882C23.4557 24.4147 25.278 23.4704 25.6925 22.3185C26.0191 21.4112 26.1052 20.4199 25.8879 20.0601C25.7391 19.8155 25.4827 19.6924 25.158 19.5366Z" fill="white"/>
<path d="M17.3018 0C8.09353 0 0.60204 7.43519 0.60204 16.5742C0.60204 19.5301 1.39309 22.4236 2.89163 24.9559L0.023377 33.4167C-0.0300516 33.5745 0.00968865 33.7489 0.126371 33.8677C0.210598 33.9537 0.324851 34 0.441533 34C0.486241 34 0.53128 33.9933 0.575215 33.9793L9.39756 31.1758C11.8118 32.4657 14.5404 33.1466 17.3019 33.1466C26.5093 33.1467 34 25.7123 34 16.5742C34 7.43519 26.5093 0 17.3018 0ZM17.3018 29.6942C14.7033 29.6942 12.1866 28.9439 10.0231 27.5242C9.95039 27.4764 9.86594 27.4519 9.78094 27.4519C9.73601 27.4519 9.69098 27.4588 9.64715 27.4727L5.2277 28.8775L6.65438 24.6685C6.70052 24.5322 6.67745 24.382 6.59245 24.2659C4.94499 22.0148 4.07413 19.3552 4.07413 16.5742C4.07413 9.33897 10.008 3.45255 17.3017 3.45255C24.5945 3.45255 30.5277 9.33897 30.5277 16.5742C30.5278 23.8086 24.5947 29.6942 17.3018 29.6942Z" fill="white"/>
</svg>
