<svg width="57" height="57" viewBox="0 0 57 57" fill="none" xmlns="http://www.w3.org/2000/svg">
<g clip-path="url(#clip0_238_1130)">
<path d="M28.4999 35.7761C32.6236 35.7761 35.9665 32.4332 35.9665 28.3094C35.9665 24.1857 32.6236 20.8428 28.4999 20.8428C24.3761 20.8428 21.0332 24.1857 21.0332 28.3094C21.0332 32.4332 24.3761 35.7761 28.4999 35.7761Z" fill="#323232"/>
<path d="M21.4998 4.97656L17.2298 9.64323H9.83317C7.2665 9.64323 5.1665 11.7432 5.1665 14.3099V42.3099C5.1665 44.8766 7.2665 46.9766 9.83317 46.9766H47.1665C49.7332 46.9766 51.8332 44.8766 51.8332 42.3099V14.3099C51.8332 11.7432 49.7332 9.64323 47.1665 9.64323H39.7698L35.4998 4.97656H21.4998ZM28.4998 39.9766C22.0598 39.9766 16.8332 34.7499 16.8332 28.3099C16.8332 21.8699 22.0598 16.6432 28.4998 16.6432C34.9398 16.6432 40.1665 21.8699 40.1665 28.3099C40.1665 34.7499 34.9398 39.9766 28.4998 39.9766Z" fill="#323232"/>
</g>
<defs>
<clipPath id="clip0_238_1130">
<rect width="56" height="56" fill="white" transform="translate(0.5 0.30957)"/>
</clipPath>
</defs>
</svg>
