<svg width="57" height="57" viewBox="0 0 57 57" fill="none" xmlns="http://www.w3.org/2000/svg">
<g clip-path="url(#clip0_238_1133)">
<path d="M47.1665 10.1426H9.83317C7.24317 10.1426 5.18984 12.2192 5.18984 14.8092L5.1665 42.8092C5.1665 45.3992 7.24317 47.4759 9.83317 47.4759H47.1665C49.7565 47.4759 51.8332 45.3992 51.8332 42.8092V14.8092C51.8332 12.2192 49.7565 10.1426 47.1665 10.1426ZM20.3332 35.8092H17.5332L11.5832 27.6426V35.8092H8.6665V21.8092H11.5832L17.4165 29.9759V21.8092H20.3332V35.8092ZM31.9998 24.7492H26.1665V27.3626H31.9998V30.3026H26.1665V32.8926H31.9998V35.8092H22.6665V21.8092H31.9998V24.7492ZM48.3332 33.4759C48.3332 34.7592 47.2832 35.8092 45.9998 35.8092H36.6665C35.3832 35.8092 34.3332 34.7592 34.3332 33.4759V21.8092H37.2498V32.3326H39.8865V24.1192H42.8032V32.3092H45.4165V21.8092H48.3332V33.4759Z" fill="#323232"/>
</g>
<defs>
<clipPath id="clip0_238_1133">
<rect width="56" height="56" fill="white" transform="translate(0.5 0.80957)"/>
</clipPath>
</defs>
</svg>
