<svg width="57" height="57" viewBox="0 0 57 57" fill="none" xmlns="http://www.w3.org/2000/svg">
<path d="M39.4375 9.55957C34.9203 9.55957 30.9653 11.5021 28.5 14.7855C26.0347 11.5021 22.0797 9.55957 17.5625 9.55957C13.9667 9.56362 10.5194 10.9938 7.97684 13.5364C5.43426 16.079 4.00405 19.5263 4 23.1221C4 38.4346 26.7041 50.8289 27.6709 51.3408C27.9258 51.4779 28.2106 51.5497 28.5 51.5497C28.7894 51.5497 29.0742 51.4779 29.3291 51.3408C30.2959 50.8289 53 38.4346 53 23.1221C52.9959 19.5263 51.5657 16.079 49.0232 13.5364C46.4806 10.9938 43.0333 9.56362 39.4375 9.55957ZM28.5 47.7971C24.5056 45.4696 7.5 34.8668 7.5 23.1221C7.50347 20.4544 8.56474 17.897 10.4511 16.0106C12.3374 14.1243 14.8948 13.063 17.5625 13.0596C21.8172 13.0596 25.3894 15.3258 26.8813 18.9658C27.0131 19.2868 27.2374 19.5613 27.5256 19.7545C27.8138 19.9477 28.153 20.0509 28.5 20.0509C28.847 20.0509 29.1862 19.9477 29.4744 19.7545C29.7626 19.5613 29.9869 19.2868 30.1187 18.9658C31.6106 15.3193 35.1828 13.0596 39.4375 13.0596C42.1052 13.063 44.6626 14.1243 46.5489 16.0106C48.4353 17.897 49.4965 20.4544 49.5 23.1221C49.5 34.8493 32.49 45.4674 28.5 47.7971Z" fill="#1B1B1B"/>
</svg>
