<svg width="57" height="57" viewBox="0 0 57 57" fill="none" xmlns="http://www.w3.org/2000/svg">
<g clip-path="url(#clip0_238_1136)">
<path d="M12.1665 18.9766H16.8332V37.6432H12.1665V18.9766ZM28.4998 18.9766H21.4998C20.2165 18.9766 19.1665 20.0266 19.1665 21.3099V35.3099C19.1665 36.5932 20.2165 37.6432 21.4998 37.6432H28.4998C29.7832 37.6432 30.8332 36.5932 30.8332 35.3099V21.3099C30.8332 20.0266 29.7832 18.9766 28.4998 18.9766ZM26.1665 32.9766H23.8332V23.6432H26.1665V32.9766ZM42.4998 18.9766H35.4998C34.2165 18.9766 33.1665 20.0266 33.1665 21.3099V35.3099C33.1665 36.5932 34.2165 37.6432 35.4998 37.6432H42.4998C43.7832 37.6432 44.8332 36.5932 44.8332 35.3099V21.3099C44.8332 20.0266 43.7832 18.9766 42.4998 18.9766ZM40.1665 32.9766H37.8332V23.6432H40.1665V32.9766Z" fill="#323232"/>
<path d="M5.1665 9.64258V46.9759H51.8332V9.64258H5.1665ZM9.83317 42.3092V14.3092H47.1665V42.3092H9.83317Z" fill="#323232"/>
</g>
<defs>
<clipPath id="clip0_238_1136">
<rect width="56" height="56" fill="white" transform="translate(0.5 0.30957)"/>
</clipPath>
</defs>
</svg>
