<svg width="57" height="57" viewBox="0 0 57 57" fill="none" xmlns="http://www.w3.org/2000/svg">
<g clip-path="url(#clip0_238_1127)">
<path d="M31.0898 13.6566L29.7598 20.3999C29.4798 21.7766 29.8532 23.1999 30.7398 24.2732C31.6265 25.3466 32.9332 25.9766 34.3332 25.9766H47.1665V28.4966L41.1698 42.3099H22.2932C21.8732 42.3099 21.4998 41.9366 21.4998 41.5166V23.2232L31.0898 13.6566ZM33.1665 4.97656L18.2098 19.9332C17.3232 20.8199 16.8332 22.0099 16.8332 23.2466V41.5166C16.8332 44.5266 19.2832 46.9766 22.2932 46.9766H41.1932C42.8498 46.9766 44.3665 46.1132 45.2065 44.7132L51.4365 30.3632C51.6932 29.7799 51.8332 29.1499 51.8332 28.4966V25.9766C51.8332 23.4099 49.7332 21.3099 47.1665 21.3099H34.3332L36.4798 10.4599C36.5965 9.94656 36.5265 9.38656 36.2932 8.9199C35.7565 7.8699 35.0798 6.91323 34.2398 6.07323L33.1665 4.97656ZM9.83317 21.3099H5.1665V46.9766H9.83317C11.1165 46.9766 12.1665 45.9266 12.1665 44.6432V23.6432C12.1665 22.3599 11.1165 21.3099 9.83317 21.3099Z" fill="#323232"/>
</g>
<defs>
<clipPath id="clip0_238_1127">
<rect width="56" height="56" fill="white" transform="translate(0.5 0.30957)"/>
</clipPath>
</defs>
</svg>
